<svg xmlns="http://www.w3.org/2000/svg" viewBox="0 0 480 340" role="img" aria-label="Talerz z gwiazdkami z ciasta i gałązką świerku z czerwonymi jagodami">
  <defs><filter id="shh" x="-20%" y="-20%" width="140%" height="180%"><feGaussianBlur stdDeviation="7"/></filter></defs>
  <path d="M40 88C80 30 220 10 340 30c80 14 118 60 106 130-12 70-96 130-216 138C130 304 46 250 34 170 30 140 32 110 40 88Z" fill="#F7E6BA"/>
  <ellipse cx="240" cy="284" rx="206" ry="30" fill="#2B1D14" opacity=".2" filter="url(#shh)"/>
  <ellipse cx="240" cy="270" rx="206" ry="44" fill="#E7DCC8"/>
  <ellipse cx="240" cy="264" rx="206" ry="44" fill="#FFFDF8"/>
  <ellipse cx="240" cy="266" rx="160" ry="30" fill="#F3EBDD"/>
  <g>
    <polygon points="164.8,161.3 182.0,190.2 215.7,190.7 193.5,216.0 203.5,248.2 172.5,234.9 145.0,254.3 148.1,220.8 121.1,200.6 153.9,193.2" fill="#7C4318" stroke="#7C4318" stroke-width="12" stroke-linejoin="round"/>
    <polygon points="164.8,156.3 182.0,185.2 215.7,185.7 193.5,211.0 203.5,243.2 172.5,229.9 145.0,249.3 148.1,215.8 121.1,195.6 153.9,188.2" fill="#B8763A" stroke="#B8763A" stroke-width="12" stroke-linejoin="round"/>
    <polygon points="166.8,175.2 177.4,193.1 198.3,193.4 184.6,209.1 190.7,229.0 171.6,220.8 154.5,232.8 156.4,212.1 139.7,199.6 160.0,194.9" fill="none" stroke="#FFF8E6" stroke-width="3.2" stroke-linejoin="round" stroke-linecap="round" stroke-dasharray="1 7"/>
    <circle cx="170" cy="206" r="5" fill="#FFF8E6"/>
  </g>
  <g>
    <polygon points="305.9,163.3 318.1,198.9 354.8,207.4 324.7,230.0 328.0,267.5 297.2,245.9 262.5,260.6 273.6,224.6 248.8,196.2 286.5,195.6" fill="#7C4318" stroke="#7C4318" stroke-width="12" stroke-linejoin="round"/>
    <polygon points="305.9,158.3 318.1,193.9 354.8,202.4 324.7,225.0 328.0,262.5 297.2,240.9 262.5,255.6 273.6,219.6 248.8,191.2 286.5,190.6" fill="#C0803F" stroke="#C0803F" stroke-width="12" stroke-linejoin="round"/>
    <polygon points="303.6,179.5 311.2,201.6 334.0,206.8 315.3,220.8 317.4,244.1 298.3,230.6 276.8,239.8 283.6,217.5 268.3,199.9 291.6,199.5" fill="none" stroke="#FFF8E6" stroke-width="3.2" stroke-linejoin="round" stroke-linecap="round" stroke-dasharray="1 7"/>
    <circle cx="300" cy="214" r="5" fill="#FFF8E6"/>
  </g>
  <g>
    <polygon points="238.0,107.0 251.5,136.4 283.7,140.2 259.9,162.1 266.2,193.8 238.0,178.0 209.8,193.8 216.1,162.1 192.3,140.2 224.5,136.4" fill="#7C4318" stroke="#7C4318" stroke-width="12" stroke-linejoin="round"/>
    <polygon points="238.0,102.0 251.5,131.4 283.7,135.2 259.9,157.1 266.2,188.8 238.0,173.0 209.8,188.8 216.1,157.1 192.3,135.2 224.5,131.4" fill="#A96A31" stroke="#A96A31" stroke-width="12" stroke-linejoin="round"/>
    <polygon points="238.0,120.2 246.4,138.5 266.3,140.8 251.6,154.4 255.5,174.1 238.0,164.3 220.5,174.1 224.4,154.4 209.7,140.8 229.6,138.5" fill="none" stroke="#FFF8E6" stroke-width="3.2" stroke-linejoin="round" stroke-linecap="round" stroke-dasharray="1 7"/>
    <circle cx="238" cy="150" r="5" fill="#FFF8E6"/>
  </g>
  <!-- świerk -->
  <g stroke="#2F5239" stroke-width="4" stroke-linecap="round" fill="none">
    <path d="M370 250C392 226 410 196 424 158"/>
  </g>
  <g stroke="#3F6B4B" stroke-width="3.4" stroke-linecap="round">
    <path d="M378 240l-22-6M380 236l24-8M386 226l-24-8M389 222l24-10M396 210l-22-10M399 206l22-12M407 190l-20-10M409 186l20-14M416 170l-16-10M418 166l16-16"/>
  </g>
  <g fill="#B4233C"><circle cx="366" cy="252" r="8"/><circle cx="382" cy="258" r="8"/><circle cx="374" cy="242" r="7"/></g>
  <g fill="#fff" opacity=".45"><circle cx="363" cy="249" r="2.4"/><circle cx="379" cy="255" r="2.4"/></g>
</svg>
